<?xml version="1.0" ?><!DOCTYPE svg  PUBLIC '-//W3C//DTD SVG 1.1//EN'  'http://www.w3.org/Graphics/SVG/1.1/DTD/svg11.dtd'><svg height="419.999px" id="_x31_41-git" style="enable-background:new 51.143 46 413.857 419.999;" version="1.1" viewBox="51.143 46 413.857 419.999" width="413.857px" xml:space="preserve" xmlns="http://www.w3.org/2000/svg" xmlns:xlink="http://www.w3.org/1999/xlink"><g><g><path d="M154.215,427.428c-11.997,0-21.437-1.452-28.858-4.44c-12.77-5.142-19.803-15.106-19.803-28.06    c0.056-12.466,6.045-33.303,45.535-33.303c40.708,0,46.786,20.25,46.786,32.32C197.875,406.45,192.203,427.428,154.215,427.428z     M151.089,381.625c-25.476,0-25.517,9.354-25.535,13.348c0,3.047,0,12.455,28.661,12.455c23.66,0,23.66-9.106,23.66-13.482    C177.875,390.576,177.875,381.625,151.089,381.625z"/></g><g><g><path d="M142.839,465.999c-57.417,0-91.696-25.7-91.696-68.749c0-17.429,6.166-39.791,33.274-53.837     c-5.785-8.345-8.621-19.057-7.856-30.751c0.59-9.024,3.37-17.262,7.693-23.606c-19.201-14.051-30.611-41.508-30.611-63.681     c0-23.734,9.192-45.184,25.883-60.397c15.53-14.155,36.09-21.951,57.893-21.951c14.618,0,29.063,3.631,41.958,10.525     c12.835-0.374,26.758-3.589,42.463-9.798c3.079-1.219,6.562-0.832,9.3,1.03c2.738,1.862,4.377,4.958,4.377,8.27v45.089     c0,4.287-2.733,8.098-6.794,9.472c-2.775,0.939-5.558,1.805-8.382,2.607c0.776,3.897,1.158,7.737,1.158,11.581     c0,42.805-26.816,75.452-68.33,83.202c-9.121,1.916-9.526,4.346-9.526,9.207c0,6.302,10.359,9.42,27.42,13.805     c13.214,3.397,28.192,7.247,40.283,15.502c14.913,10.182,22.475,25.194,22.475,44.622     C233.822,423.66,218.037,465.999,142.839,465.999z M137.419,163.027c-30.917,0-63.776,21.852-63.776,62.348     c0,19.6,12.932,45.866,30.24,51.682c4.072,1.368,6.815,5.185,6.815,9.479v0.893c0,3.961-2.338,7.549-5.962,9.148     c-3.534,1.56-7.615,8.186-8.217,17.391c-0.257,3.931-0.277,17.255,10.267,23.665c2.983,1.814,4.805,5.054,4.805,8.545v0.893     c0,4.316-2.77,8.146-6.869,9.497c-22.908,7.553-33.578,20.479-33.578,40.683c0,42.416,44.92,48.749,71.696,48.749     c63.624,0,70.982-33.021,70.982-57.857c0-26.5-18.901-33.341-47.737-40.753c-19.894-5.114-42.441-10.91-42.441-33.176     c0-23.489,19.231-27.492,25.551-28.808c0.071-0.015,0.143-0.029,0.214-0.042c32.131-5.96,52.091-30.314,52.091-63.56     c0-4.881-0.967-9.886-2.958-15.298c-0.994-2.705-0.774-5.707,0.605-8.237s3.783-4.342,6.595-4.972     c3.358-0.752,6.596-1.579,9.775-2.496v-23.597c-13.754,4.288-26.5,6.386-38.661,6.386c-1.752,0-3.474-0.46-4.993-1.335     C161.388,166.218,149.478,163.027,137.419,163.027z"/></g><g><path d="M139.089,266c-24.115,0-37.946-14.644-37.946-40.178c0-28.166,18.73-42.902,37.231-42.902     c18.502,0,37.231,14.583,37.231,42.455C175.606,251.193,162.296,266,139.089,266z M138.375,202.92     c-8.577,0-17.231,7.082-17.231,22.902c0,16.747,7.174,20.178,17.946,20.178c7.991,0,16.517-1.594,16.517-20.625     C155.606,209.864,146.952,202.92,138.375,202.92z"/></g><g><path d="M414.373,362.695c-25.515,0-43.512-9.792-53.492-29.104c-8.724-16.879-9.899-38.494-9.899-57.412v-69.563     c-2.374,0.145-5.444,0.516-9.443,1.139c-2.88,0.453-5.823-0.385-8.043-2.285c-2.218-1.9-3.495-4.675-3.495-7.596v-42.41     c0-5.523,4.478-10,10-10h11.441c0.021-12.392-0.041-18.476-1.201-25.046c-0.514-2.911,0.286-5.901,2.187-8.166     c1.899-2.265,4.705-3.573,7.661-3.573h50.627c2.902,0,5.662,1.261,7.562,3.456c1.899,2.195,2.751,5.106,2.335,7.979     c-1.205,8.315-1.314,16.646-1.281,25.351h35.58c5.522,0,10,4.477,10,10v42.41c0,2.742-1.126,5.363-3.114,7.251     c-1.987,1.888-4.674,2.876-7.401,2.736c-0.149-0.008-13.271-0.672-35.02-0.84v71.299c0,19.288,6.632,19.288,9.464,19.288     c7.457,0,15.501-2.219,20.495-5.653c3.06-2.104,7.033-2.34,10.321-0.61c3.287,1.729,5.345,5.137,5.345,8.851v43.751     c0,3.65-1.989,7.011-5.189,8.767C444.775,360.964,426.803,362.695,414.373,362.695z M370.981,200.838v75.341     c0,49.109,11.354,66.516,43.392,66.516c11.67,0,22.307-1.787,30.627-5.091v-22.16c-5.189,1.404-10.711,2.164-16.161,2.164     c-8.859,0-29.464-3.828-29.464-39.288v-81.337c0-5.523,4.478-10,10-10c15.479,0,27.614,0.261,35.535,0.503v-22.021h-35.535     c-5.522,0-10-4.477-10-10c0-2.017-0.013-4.034-0.024-6.052c-0.041-6.77-0.083-13.689,0.333-20.733h-28.473     c0.254,5.173,0.242,11.145,0.227,19.388c-0.005,2.268-0.01,4.723-0.01,7.397c0,5.523-4.478,10-10,10H350v21.176     c1.096-0.063,2.116-0.094,3.08-0.094c2.05,0,3.578,0.134,4.928,0.251c1.178,0.103,2.108,0.184,3.42,0.184c5.522,0,10,4.477,10,10     v0.892C371.428,198.907,371.271,199.902,370.981,200.838z"/></g><g><path d="M280.805,131.09c-22.5,0-40.805-18.985-40.805-42.321C240,65.186,258.305,46,280.805,46     c22.153,0,40.177,19.186,40.177,42.768C320.981,111.709,302.583,131.09,280.805,131.09z M280.805,66     C267.954,66,260,77.819,260,88.769c0,10.735,7.954,22.321,20.805,22.321c12.069,0,20.177-11.542,20.177-22.321     C300.981,77.773,292.874,66,280.805,66z"/></g><g><path d="M310.02,359.75c-0.006,0-0.014,0-0.02,0h-54.108c-2.805,0-5.481-1.179-7.376-3.247c-1.894-2.069-2.832-4.839-2.585-7.633     c1.474-16.685,1.503-180.294,0.034-192.377c-0.346-2.841,0.543-5.695,2.441-7.837c1.898-2.143,4.624-3.37,7.486-3.37H310     c2.865,0,5.593,1.229,7.491,3.376c1.898,2.146,2.784,5.004,2.434,7.848c-1.467,11.894-1.452,172.213-0.01,191.784     c0.069,0.476,0.104,0.962,0.104,1.456C320.02,355.272,315.543,359.75,310.02,359.75z M266.278,339.75h33.332     c-0.856-35.292-1.122-138.705-0.103-174.464H266.38C267.392,201.04,267.128,304.475,266.278,339.75z"/></g></g></g></svg>